:version 1.10
:name ASF
:units
  mass 1
  length 1
  angle deg
:documentation
  ASF file generated by Kaydara
:root
  axis xyz
  order  tx ty tz rx ry rz
  position 0 0 0
  orientation 0 0 0
:bonedata
  begin
    id 1
    name RightUpLegDummy
    direction -1 2.30186e-007 8.31532e-007
    length 4.04083
    axis 0 0 0 xyz
  end
  begin
    id 2
    name RightUpLeg
    direction -0.000919234 -0.999985 0.00544864
    length 17.4221
    axis -3.80308 -0.00076134 -0.0523649 xyz
    dof rx ry rz
  end
  begin
    id 3
    name RightLeg
    direction -0.000919271 -0.999984 -0.00555045
    length 17.1239
    axis 4.00314 0.0181274 -0.183583 xyz
    dof rx ry rz
  end
  begin
    id 4
    name RightFoot
    direction -2.57843e-005 -4.04509e-007 1
    length 6.72091
    axis 8.18909e-005 -0.122003 -0.403008 xyz
    dof rx ry rz
  end
  begin
    id 5
    name RightToes
    direction 0.00116825 -0.014069 0.9999
    length 3.85082
    axis 0.000514414 0.540638 -0.356797 xyz
    dof rx ry rz
  end
  begin
    id 6
    name SpineDummy
    direction 0.0168869 0.966876 -0.254689
    length 6.99894
    axis 0 0 0 xyz
  end
  begin
    id 7
    name Spine
    direction -0.0132008 0.999903 0.00446247
    length 11.1999
    axis -0.00148109 0.00725429 0.756411 xyz
    dof rx ry rz
  end
  begin
    id 8
    name Spine1
    direction 0 0 0
    length 0
    axis -0.000934958 0.0245693 1.46543 xyz
    dof rx ry rz
  end
  begin
    id 9
    name HEadDummy
    direction -0.0255732 0.999672 0.00128215
    length 3.43865
    axis -0.000934958 0.0245693 1.46543 xyz
  end
  begin
    id 10
    name HEad
    direction -0.0472656 0.980052 0.19304
    length 5.12695
    axis -0.000934954 0.0245693 1.46543 xyz
    dof rx ry rz
  end
  begin
    id 11
    name LeftShoulder1Dummy
    direction 0.953098 0.301717 -0.023914
    length 3.68488
    axis -0.000934958 0.0245693 1.46543 xyz
  end
  begin
    id 12
    name LeftShoulder1
    direction 0.962466 0.271167 0.0112566
    length 3.13809
    axis -0.000934958 0.0245693 1.46543 xyz
    dof rx ry rz
  end
  begin
    id 13
    name LeftArm
    direction 0.999943 0.00455037 -0.00961766
    length 11.3419
    axis -23.1648 0.685459 1.22814 xyz
    dof rx ry rz
  end
  begin
    id 14
    name LeftForeArm
    direction 0.999332 0.0131969 0.0340885
    length 8.70632
    axis -9.90633 0.618216 0.0826942 xyz
    dof rx ry rz
  end
  begin
    id 15
    name LeftHand
    direction 0.994373 -0.0366703 0.0993905
    length 5.32135
    axis 0.00675269 0.680415 0.445699 xyz
    dof rx ry rz
  end
  begin
    id 16
    name RightShoulderDummy
    direction -0.967298 0.252589 -0.0230903
    length 3.68488
    axis -0.000934958 0.0245693 1.46543 xyz
  end
  begin
    id 17
    name RightShoulder
    direction -0.975062 0.221602 0.0120823
    length 3.13809
    axis 0.216257 0.0246515 1.45863 xyz
    dof rx ry rz
  end
  begin
    id 18
    name RightArm
    direction -0.99886 -0.00851186 -0.0469687
    length 10.3947
    axis -23.196 0.23503 -0.532632 xyz
    dof rx ry rz
  end
  begin
    id 19
    name RightForeArm
    direction -0.99909 0.00114866 0.0426317
    length 8.68355
    axis -9.91764 -0.134943 0.610517 xyz
    dof rx ry rz
  end
  begin
    id 20
    name RightHand
    direction -0.992888 -0.0489538 0.10852
    length 5.28593
    axis -0.00275396 -0.197403 0.246414 xyz
    dof rx ry rz
  end
  begin
    id 21
    name LeftUpLegDummy
    direction 1 -2.30186e-007 -8.31532e-007
    length 4.04083
    axis 0 0 0 xyz
  end
  begin
    id 22
    name LeftUpLeg
    direction -0.000920097 -1 2.79241e-006
    length 17.4221
    axis -3.48782 0.00143434 -0.0532288 xyz
    dof rx ry rz
  end
  begin
    id 23
    name LeftLeg
    direction -0.000920097 -1 2.7912e-006
    length 17.1239
    axis 3.68162 -0.00806512 -0.0529896 xyz
    dof rx ry rz
  end
  begin
    id 24
    name LeftFoot
    direction -2.57845e-005 -3.987e-007 1
    length 6.72091
    axis 3.02372e-005 -0.00147829 -0.214229 xyz
    dof rx ry rz
  end
  begin
    id 25
    name LeftToes
    direction 0.00813577 -0.00488255 0.999955
    length 3.85048
    axis 3.89895e-005 -0.0014783 -0.214229 xyz
    dof rx ry rz
  end
:hierarchy
  begin
    root RightUpLegDummy SpineDummy LeftUpLegDummy
    RightUpLegDummy RightUpLeg
    RightUpLeg RightLeg
    RightLeg RightFoot
    RightFoot RightToes
    SpineDummy Spine
    Spine Spine1
    Spine1 HEadDummy LeftShoulder1Dummy RightShoulderDummy
    HEadDummy HEad
    LeftShoulder1Dummy LeftShoulder1
    LeftShoulder1 LeftArm
    LeftArm LeftForeArm
    LeftForeArm LeftHand
    RightShoulderDummy RightShoulder
    RightShoulder RightArm
    RightArm RightForeArm
    RightForeArm RightHand
    LeftUpLegDummy LeftUpLeg
    LeftUpLeg LeftLeg
    LeftLeg LeftFoot
    LeftFoot LeftToes
  end

:SAMPLES-PER-SECOND 30
:FULLY-SPECIFIED
:DEGREES
1
root  -41.5916 34.6798 5.01053 -159.477 85.2506 -167.335
RightUpLeg  -7.46378 -19.5394 0.178079
RightLeg  7.47946 -3.00901 -0.198155
RightFoot  3.5587 0.0217041 -0.0309146
RightToes  -26.21 -0.121372 -0.230158
Spine  -1.86452 -0.302738 0.798421
Spine1  -3.80364 -0.525495 2.16373
HEad  -69.0181 -13.7854 9.43029
LeftShoulder1  -1.94126e-019 -3.10601e-018 -2.51263e-017
LeftArm  -10.5346 25.1885 -81.5495
LeftForeArm  35.2213 -13.4051 -2.27211
LeftHand  -0.523025 -1.08732 9.51824
RightShoulder  -4.96962e-017 0 -2.36833e-017
RightArm  -30.6766 -24.5756 76.0243
RightForeArm  56.5481 13.8034 1.27773
RightHand  -0.421569 -0.923718 -10.7734
LeftUpLeg  -8.58941 2.53289 6.57045
LeftLeg  7.22495 13.6243 0.834614
LeftFoot  8.65584 -0.147126 2.1895
LeftToes  -29.9003 2.40056e-006 -7.68412e-008
2
root  -41.5575 34.6693 5.01531 -158.903 85.2626 -166.825
RightUpLeg  -7.52227 -19.4333 0.234593
RightLeg  7.57977 -3.10405 -0.209893
RightFoot  3.41803 0.0212943 -0.025058
RightToes  -26.0497 -0.121372 -0.230158
Spine  -1.93734 -0.26708 0.825615
Spine1  -3.94767 -0.441866 2.22433
HEad  -69.1729 -13.706 9.52225
LeftShoulder1  -1.94126e-019 -3.10601e-018 -2.51263e-017
LeftArm  -12.0613 25.5851 -81.4529
LeftForeArm  35.681 -12.1752 -2.07869
LeftHand  -0.494689 -1.49293 8.51025
RightShoulder  -4.96962e-017 0 -2.36833e-017
RightArm  -30.6961 -24.5478 76.0451
RightForeArm  56.5758 13.8212 1.27329
RightHand  -0.42161 -0.885408 -10.7755
LeftUpLeg  -8.52402 3.06349 6.58317
LeftLeg  7.05357 13.2318 0.771642
LeftFoot  8.61938 -0.142712 2.12085
LeftToes  -29.8539 2.40056e-006 -7.68412e-008
3
root  -41.5201 34.6595 5.01415 -158.333 85.2299 -166.322
RightUpLeg  -7.56388 -19.4658 0.290541
RightLeg  7.64649 -3.09645 -0.212999
RightFoot  3.40038 0.0209855 -0.0206462
RightToes  -26.2473 -0.121372 -0.230158
Spine  -2.0056 -0.238769 0.8447
Spine1  -4.08269 -0.372408 2.26508
HEad  -69.1291 -13.8516 9.49818
LeftShoulder1  -1.94126e-019 -3.10601e-018 -2.51263e-017
LeftArm  -12.6567 25.9636 -81.2485
LeftForeArm  35.787 -11.2857 -1.92962
LeftHand  -0.526572 -1.07326 9.60153
RightShoulder  -4.96962e-017 0 -2.36833e-017
RightArm  -30.7081 -24.5131 76.0759
RightForeArm  56.6169 13.8217 1.27318
RightHand  -0.419625 -0.877218 -10.8377
LeftUpLeg  -8.39074 3.2169 6.63174
LeftLeg  6.75625 13.0777 0.695363
LeftFoot  8.67044 -0.141975 2.10938
LeftToes  -29.9488 2.40056e-006 -7.68412e-008
4
root  -41.4789 34.6522 5.0075 -158.07 85.1948 -166.118
RightUpLeg  -7.54705 -19.5077 0.306689
RightLeg  7.63507 -3.0791 -0.211185
RightFoot  3.37025 0.0206606 -0.0160024
RightToes  -26.1862 -0.121372 -0.230158
Spine  -2.05452 -0.21499 0.847161
Spine1  -4.17914 -0.314509 2.26985
HEad  -69.2334 -13.8343 9.58987
LeftShoulder1  -1.94126e-019 -3.10601e-018 -2.51263e-017
LeftArm  -12.8518 26.3991 -81.04
LeftForeArm  35.7004 -11.2855 -1.92867
LeftHand  -0.512829 -1.11496 9.29803
RightShoulder  -4.96962e-017 0 -2.36833e-017
RightArm  -30.7011 -24.4331 76.1275
RightForeArm  56.6867 13.8209 1.27338
RightHand  -0.419777 -0.896699 -10.8313
LeftUpLeg  -8.19363 3.41045 6.65045
LeftLeg  6.34958 12.8646 0.593505
LeftFoot  8.77938 -0.141421 2.10078
LeftToes  -30.1008 2.40056e-006 -7.68412e-008
5
root  -41.4387 34.6488 4.99484 -158.057 85.1182 -166.151
RightUpLeg  -7.45299 -19.66 0.299675
RightLeg  7.50671 -2.9879 -0.198186
RightFoot  3.41696 0.0204025 -0.0123142
RightToes  -26.1788 -0.121372 -0.230158
Spine  -2.11436 -0.183838 0.857914
Spine1  -4.29711 -0.244484 2.29198
HEad  -69.2886 -13.8513 9.73137
LeftShoulder1  -1.94126e-019 -3.10601e-018 -2.51263e-017
LeftArm  -12.9788 26.7189 -80.9572
LeftForeArm  35.7219 -11.3032 -1.93112
LeftHand  -0.507474 -1.50579 8.71063
RightShoulder  -4.96962e-017 0 -2.36833e-017
RightArm  -30.7082 -24.4289 76.1426
RightForeArm  56.6328 13.8494 1.27013
RightHand  -0.419214 -0.922485 -10.8464
LeftUpLeg  -8.19792 3.48294 6.65601
LeftLeg  6.36841 12.7334 0.591703
LeftFoot  8.70562 -0.139089 2.06451
LeftToes  -30.2064 2.40056e-006 -7.68412e-008
6
root  -41.4038 34.649 4.97677 -158.261 85.004 -166.395
RightUpLeg  -7.32382 -19.86 0.2759
RightLeg  7.31598 -2.90948 -0.183244
RightFoot  3.49921 0.0203168 -0.0110897
RightToes  -26.2277 -0.121372 -0.230158
Spine  -2.17186 -0.157633 0.867085
Spine1  -4.41134 -0.187852 2.30941
HEad  -69.4764 -13.9069 9.72204
LeftShoulder1  -1.94126e-019 -3.10601e-018 -2.51263e-017
LeftArm  -12.9974 26.895 -80.9692
LeftForeArm  35.6977 -11.4229 -1.9458
LeftHand  -0.503137 -1.58021 8.55108
RightShoulder  -4.96962e-017 0 -2.36833e-017
RightArm  -30.6362 -24.4625 76.143
RightForeArm  56.5185 13.9222 1.26158
RightHand  -0.419064 -0.961081 -10.8477
LeftUpLeg  -8.19219 3.57707 6.64106
LeftLeg  6.33937 12.5497 0.576973
LeftFoot  8.64361 -0.136384 2.02244
LeftToes  -30.1478 2.40056e-006 -7.68412e-008
7
root  -41.3766 34.6523 4.95473 -158.612 84.8802 -166.789
RightUpLeg  -7.18071 -20.0197 0.239978
RightLeg  7.06291 -2.88103 -0.168679
RightFoot  3.63334 0.0206814 -0.0163003
RightToes  -26.3128 -0.121372 -0.230158
Spine  -2.21999 -0.136795 0.873477
Spine1  -4.50782 -0.144659 2.3195
HEad  -69.5952 -13.9286 9.81238
LeftShoulder1  -1.94126e-019 -3.10601e-018 -2.51263e-017
LeftArm  -12.9537 26.915 -81.075
LeftForeArm  35.6179 -11.5741 -1.96366
LeftHand  -0.500189 -1.65437 8.41808
RightShoulder  -4.96962e-017 0 -2.36833e-017
RightArm  -30.5291 -24.4695 76.1301
RightForeArm  56.4636 13.9683 1.25592
RightHand  -0.417621 -0.945968 -10.8934
LeftUpLeg  -8.18678 3.50031 6.61407
LeftLeg  6.27439 12.4962 0.560469
LeftFoot  8.65573 -0.136042 2.01712
LeftToes  -30.1907 2.40056e-006 -7.68412e-008
8
root  -41.3592 34.658 4.92871 -158.958 84.7758 -167.167
RightUpLeg  -7.04636 -20.0798 0.192899
RightLeg  6.82131 -2.91903 -0.158577
RightFoot  3.76925 0.0213685 -0.0261187
RightToes  -26.3398 -0.121372 -0.230158
Spine  -2.25142 -0.116609 0.880847
Spine1  -4.57165 -0.104385 2.33016
HEad  -69.8669 -13.6356 10.0454
LeftShoulder1  -1.94126e-019 -3.10601e-018 -2.51263e-017
LeftArm  -12.9141 26.826 -81.2841
LeftForeArm  35.5145 -11.9864 -2.02547
LeftHand  -0.495369 -1.65136 8.34199
RightShoulder  -4.96962e-017 0 -2.36833e-017
RightArm  -30.4603 -24.4241 76.1097
RightForeArm  56.403 14.0054 1.25161
RightHand  -0.418159 -0.945425 -10.8769
LeftUpLeg  -8.15281 3.43415 6.57092
LeftLeg  6.15336 12.4546 0.532497
LeftFoot  8.6846 -0.136038 2.01706
LeftToes  -30.1384 2.40056e-006 -7.68412e-008
9
root  -41.3486 34.6652 4.89955 -159.225 84.6893 -167.46
RightUpLeg  -6.94889 -20.0796 0.148445
RightLeg  6.633 -3.02266 -0.154284
RightFoot  3.89384 0.0223427 -0.040041
RightToes  -26.3788 -0.121372 -0.230158
Spine  -2.2648 -0.104076 0.890399
Spine1  -4.59961 -0.0802171 2.34414
HEad  -70.0251 -13.614 10.0728
LeftShoulder1  -1.94126e-019 -3.10601e-018 -2.51263e-017
LeftArm  -12.8281 26.6781 -81.5488
LeftForeArm  35.4213 -12.7028 -2.13595
LeftHand  -0.492234 -1.66883 8.27111
RightShoulder  -4.96962e-017 0 -2.36833e-017
RightArm  -30.3714 -24.3183 76.0758
RightForeArm  56.4013 14.0187 1.24924
RightHand  -0.419952 -0.910489 -10.8246
LeftUpLeg  -8.10638 3.38646 6.52279
LeftLeg  6.00201 12.4243 0.498622
LeftFoot  8.71505 -0.136158 2.01893
LeftToes  -30.064 2.40056e-006 -7.68412e-008
10
root  -41.3437 34.6743 4.86782 -159.656 84.6394 -167.917
RightUpLeg  -6.86727 -20.0829 0.0717525
RightLeg  6.45387 -3.07147 -0.147173
RightFoot  4.02079 0.0231029 -0.0509044
RightToes  -26.4915 -0.121372 -0.230158
Spine  -2.26157 -0.091967 0.892113
Spine1  -4.59413 -0.0574241 2.34272
HEad  -70.0886 -13.6465 9.97036
LeftShoulder1  -1.94126e-019 -3.10601e-018 -2.51263e-017
LeftArm  -12.4633 26.4997 -81.8284
LeftForeArm  35.1696 -13.6764 -2.27711
LeftHand  -0.486776 -1.64232 8.21014
RightShoulder  -4.96962e-017 0 -2.36833e-017
RightArm  -30.2777 -24.166 76.0527
RightForeArm  56.4321 14.033 1.2474
RightHand  -0.419659 -0.877613 -10.8366
LeftUpLeg  -8.05202 3.30191 6.4451
LeftLeg  5.84215 12.4525 0.465238
LeftFoot  8.77894 -0.137367 2.03774
LeftToes  -30.0848 2.40056e-006 -7.68412e-008
